<svg xmlns="http://www.w3.org/2000/svg" xmlns:xlink="http://www.w3.org/1999/xlink" version="1.1" width="1000" height="1000" viewBox="0 0 1000 1000" xml:space="preserve">
<desc>Created with Fabric.js 3.5.0</desc>
<defs>
</defs>
<rect x="0" y="0" width="100%" height="100%" fill="#165610"/>
<g transform="matrix(2941.5 0 0 2941.5 500 513.5397)" id="332089">
<g style="" vector-effect="non-scaling-stroke">
		<g transform="matrix(0.8523 0 0 0.8523 -0.0004 0)" clip-path="url(#CLIPPATH_2)">
<clipPath id="CLIPPATH_2">
	<path transform="matrix(1.1733 0 0 1.1733 1.4546 0.6119) translate(-1.5557, -0.8145)" id="SvgjsClipPath17609" d="M 1.29009765625 0.5722953077507599 h 0.5311328125 v 0.4843156344984802 h -0.5311328125 Z" stroke-linecap="round"/>
</clipPath>
<path style="stroke: none; stroke-width: 1; stroke-dasharray: none; stroke-linecap: butt; stroke-dashoffset: 0; stroke-linejoin: miter; stroke-miterlimit: 4; is-custom-font: none; font-file-url: none; fill: rgb(51,119,56); fill-rule: nonzero; opacity: 1;" transform=" translate(-1.5552, -0.8145)" d="M 1.303530134228961 0.862884688449848 C 1.2862272155691963 0.832915236987082 1.2862272155691963 0.795991013012918 1.3035301503728154 0.766021561550152 L 1.3874160398461246 0.6207268712006079 C 1.404719023081307 0.5907572582992971 1.436696124287614 0.5722953077507599 1.471302736512158 0.5722953077507599 L 1.6390777442296731 0.5722953077507599 C 1.6736853250854862 0.5722953077507599 1.7056630720459727 0.590758388369111 1.7229644408957066 0.6207292927787804 L 1.806846294405395 0.7660231759356003 C 1.8241460488696808 0.7959926273983662 1.8241460488696808 0.8329136226016337 1.806846294405395 0.8628830740643997 L 1.7229644408957066 1.0081777644139438 C 1.7056630720459727 1.0381472158767098 1.6736853250854862 1.05661094224924 1.6390777442296731 1.05661094224924 L 1.471302736512158 1.05661094224924 C 1.436696124287614 1.05661094224924 1.404719023081307 1.038148830262158 1.3874160398461246 1.008179378799392 L 1.303530134228961 0.862884688449848 Z" stroke-linecap="round"/>
</g>
		<g transform="matrix(0.8523 0 0 0.8523 -0.012 0.0061)">
<path style="stroke: none; stroke-width: 1; stroke-dasharray: none; stroke-linecap: butt; stroke-dashoffset: 0; stroke-linejoin: miter; stroke-miterlimit: 4; is-custom-font: none; font-file-url: none; fill: rgb(255,252,247); fill-rule: nonzero; opacity: 1;" transform=" translate(-1.5416, -0.8216)" d="M 1.437890625 0.774169921875 Q 1.43671875 0.774169921875 1.4334228515625 0.7746826171875 Q 1.430126953125 0.7751953125 1.425732421875 0.775927734375 Q 1.421337890625 0.77666015625 1.41650390625 0.7776123046875 Q 1.411669921875 0.778564453125 1.407421875 0.779296875 Q 1.4031738281250001 0.780029296875 1.4000244140625 0.7805419921875 Q 1.396875 0.7810546875 1.3958496093750001 0.7810546875 Q 1.38603515625 0.7810546875 1.38603515625 0.77080078125 Q 1.38603515625 0.768017578125 1.3865478515625 0.7653076171875 Q 1.3870605468750001 0.76259765625 1.38837890625 0.7603271484375 Q 1.389697265625 0.758056640625 1.39189453125 0.7564453125 Q 1.394091796875 0.754833984375 1.3974609375 0.754248046875 Q 1.414599609375 0.751611328125 1.431591796875 0.748681640625 Q 1.4485839843750001 0.745751953125 1.465869140625 0.742529296875 Q 1.469677734375 0.741796875 1.4727539062500001 0.7411376953125 Q 1.475830078125 0.740478515625 1.479638671875 0.739306640625 Q 1.4837402343750001 0.738134765625 1.48857421875 0.7370361328125 Q 1.493408203125 0.7359375 1.4983154296875 0.73505859375 Q 1.50322265625 0.7341796875 1.5078369140625 0.73359375 Q 1.512451171875 0.7330078125 1.516259765625 0.7330078125 Q 1.520947265625 0.7330078125 1.5233642578125 0.7360107421875 Q 1.52578125 0.739013671875 1.52578125 0.74443359375 Q 1.52578125 0.747216796875 1.525341796875 0.7497802734375 Q 1.52490234375 0.75234375 1.52373046875 0.75439453125 Q 1.5225585937500001 0.7564453125 1.5205078125 0.757763671875 Q 1.51845703125 0.75908203125 1.5152343750000001 0.759375 Q 1.506884765625 0.760546875 1.49736328125 0.7622314453125 Q 1.487841796875 0.763916015625 1.4808105468750001 0.765966796875 Q 1.4778808593750001 0.766845703125 1.4764160156250001 0.7688232421875 Q 1.4749511718750001 0.77080078125 1.47451171875 0.77373046875 Q 1.474072265625 0.776513671875 1.4739990234375 0.7793701171875 Q 1.47392578125 0.7822265625 1.47392578125 0.7848632812499999 Q 1.47392578125 0.791015625 1.4744384765625 0.79716796875 Q 1.4749511718750001 0.8033203125 1.475390625 0.80947265625 Q 1.476708984375 0.83056640625 1.4794189453125 0.851220703125 Q 1.48212890625 0.871875 1.4853515625 0.89296875 Q 1.48564453125 0.893701171875 1.48564453125 0.89443359375 Q 1.48564453125 0.895166015625 1.48564453125 0.8958984375 Q 1.48564453125 0.903955078125 1.4765625 0.90732421875 L 1.469970703125 0.9093749999999999 Q 1.467333984375 0.91025390625 1.46484375 0.91025390625 Q 1.4610351562500001 0.91025390625 1.45869140625 0.9078369140625 Q 1.45634765625 0.905419921875 1.455615234375 0.900732421875 Q 1.4515136718750001 0.875537109375 1.4484375 0.8505615234375 Q 1.445361328125 0.8255859375 1.444482421875 0.8002441406249999 Q 1.4441894531250001 0.796142578125 1.44404296875 0.79130859375 Q 1.443896484375 0.786474609375 1.443896484375 0.78134765625 Q 1.443896484375 0.774169921875 1.437890625 0.774169921875 M 1.5609375 0.82265625 Q 1.5609375 0.8288085937499999 1.5615234375 0.8354003906249999 Q 1.562109375 0.8419921874999999 1.5629150390625 0.8485839843749999 Q 1.563720703125 0.8551757812499999 1.564306640625 0.8618408203125 Q 1.564892578125 0.868505859375 1.564892578125 0.8749511718749999 Q 1.564892578125 0.88212890625 1.559912109375 0.8865966796875 Q 1.554931640625 0.8910644531249999 1.54658203125 0.8910644531249999 Q 1.54248046875 0.8910644531249999 1.5388916015625 0.88857421875 Q 1.535302734375 0.886083984375 1.53486328125 0.8806640625 Q 1.534130859375 0.873779296875 1.5334716796875 0.8652099609375 Q 1.5328125 0.8566406249999999 1.5322998046875 0.8474853515624999 Q 1.531787109375 0.8383300781249999 1.53134765625 0.8290283203125 Q 1.530908203125 0.8197265625 1.530615234375 0.8111572265625 Q 1.530322265625 0.802587890625 1.53017578125 0.7953369140625 Q 1.530029296875 0.7880859375 1.530029296875 0.78310546875 Q 1.530029296875 0.7787109375 1.530615234375 0.774755859375 Q 1.531201171875 0.77080078125 1.53310546875 0.76787109375 Q 1.535009765625 0.76494140625 1.5383056640625 0.76318359375 Q 1.5416015625 0.76142578125 1.54716796875 0.76142578125 Q 1.551416015625 0.76142578125 1.556689453125 0.7644287109375 Q 1.561962890625 0.767431640625 1.5680419921875 0.77255859375 Q 1.57412109375 0.777685546875 1.581005859375 0.7843505859375 Q 1.587890625 0.791015625 1.59521484375 0.79833984375 Q 1.6025390625 0.8056640625 1.6102294921875 0.8132080078125 Q 1.617919921875 0.8207519531249999 1.625830078125 0.827490234375 Q 1.629345703125 0.83056640625 1.6338134765625 0.8346679687499999 Q 1.63828125 0.83876953125 1.6430419921875 0.842431640625 Q 1.647802734375 0.84609375 1.6525634765625 0.8486572265625 Q 1.65732421875 0.851220703125 1.66171875 0.851220703125 Q 1.6658203125 0.851220703125 1.6670654296875 0.8476318359375 Q 1.668310546875 0.84404296875 1.668310546875 0.8361328124999999 Q 1.668310546875 0.8302734374999999 1.6673583984375 0.821630859375 Q 1.66640625 0.81298828125 1.6646484375 0.8031738281249999 Q 1.662890625 0.793359375 1.66025390625 0.7834716796875 Q 1.6576171875 0.773583984375 1.654248046875 0.765380859375 Q 1.653515625 0.763623046875 1.6528564453125 0.7619384765625 Q 1.652197265625 0.76025390625 1.652197265625 0.758203125 Q 1.652197265625 0.754833984375 1.65439453125 0.752197265625 Q 1.656591796875 0.749560546875 1.65966796875 0.747802734375 Q 1.662744140625 0.746044921875 1.66611328125 0.7450927734375 Q 1.669482421875 0.744140625 1.6716796875 0.744140625 Q 1.676513671875 0.744140625 1.680322265625 0.7493408203125 Q 1.684130859375 0.754541015625 1.6869873046875 0.7628173828125 Q 1.68984375 0.77109375 1.691748046875 0.7814208984375 Q 1.69365234375 0.791748046875 1.6948974609375 0.8021484375 Q 1.696142578125 0.812548828125 1.6966552734375 0.8219970703125 Q 1.69716796875 0.8314453125 1.69716796875 0.837744140625 Q 1.69716796875 0.849609375 1.6962158203125 0.8586181640625 Q 1.695263671875 0.8676269531249999 1.6922607421875 0.873779296875 Q 1.6892578125 0.879931640625 1.683544921875 0.8830810546875 Q 1.67783203125 0.88623046875 1.668310546875 0.88623046875 Q 1.660693359375 0.88623046875 1.65234375 0.8830810546875 Q 1.643994140625 0.879931640625 1.6354248046875 0.8745849609374999 Q 1.62685546875 0.86923828125 1.6181396484375 0.862353515625 Q 1.609423828125 0.85546875 1.60107421875 0.847998046875 Q 1.592724609375 0.8405273437499999 1.5848876953125 0.833056640625 Q 1.57705078125 0.8255859375 1.5703125 0.819140625 Q 1.567529296875 0.8163574218749999 1.565185546875 0.8163574218749999 Q 1.563134765625 0.8163574218749999 1.5620361328125 0.8180419921875 Q 1.5609375 0.8197265625 1.5609375 0.82265625" stroke-linecap="round"/>
</g>
</g>
</g>
</svg>